<svg xmlns="http://www.w3.org/2000/svg" viewBox="0 0 560 220" width="560" height="220">
  <g fill="#29C3F0">
    <!-- ===== Z ===== -->
    <rect x="18" y="32" width="128" height="34" rx="17"/>
    <polygon points="124,66 146,66 62,154 40,154"/>
    <circle cx="135" cy="66" r="17"/>
    <circle cx="51" cy="154" r="17"/>
    <rect x="18" y="154" width="128" height="34" rx="17"/>

    <!-- ===== T ===== -->
    <rect x="183" y="32" width="128" height="34" rx="17"/>
    <rect x="231" y="66" width="34" height="122" rx="17"/>

    <!-- ===== E ===== -->
    <rect x="348" y="32" width="128" height="34" rx="17"/>
    <rect x="348" y="32" width="34" height="156" rx="17"/>
    <rect x="348" y="49" width="34" height="34"/>
    <rect x="348" y="139" width="34" height="34"/>
    <rect x="348" y="110" width="100" height="34" rx="17"/>
    <rect x="348" y="154" width="128" height="34" rx="17"/>
  </g>
</svg>
